<svg width="28" height="28" viewBox="0 0 28 28" fill="none" xmlns="http://www.w3.org/2000/svg">
<g id="edit_note">
<mask id="mask0_1_132" style="mask-type:alpha" maskUnits="userSpaceOnUse" x="0" y="0" width="28" height="28">
<rect id="Bounding box" width="28" height="28" fill="#D9D9D9"/>
</mask>
<g mask="url(#mask0_1_132)">
<path id="edit_note_2" d="M4.66666 16.3334V14H12.8333V16.3334H4.66666ZM4.66666 11.6667V9.33335H17.5V11.6667H4.66666ZM4.66666 7.00002V4.66669H17.5V7.00002H4.66666ZM15.1667 23.3334V19.7459L21.6125 13.3292C21.7875 13.1542 21.9819 13.0278 22.1958 12.95C22.4097 12.8722 22.6236 12.8334 22.8375 12.8334C23.0708 12.8334 23.2944 12.8771 23.5083 12.9646C23.7222 13.0521 23.9167 13.1834 24.0917 13.3584L25.1708 14.4375C25.3264 14.6125 25.4479 14.807 25.5354 15.0209C25.6229 15.2347 25.6667 15.4486 25.6667 15.6625C25.6667 15.8764 25.6278 16.0952 25.55 16.3188C25.4722 16.5424 25.3458 16.7417 25.1708 16.9167L18.7542 23.3334H15.1667ZM16.9167 21.5834H18.025L21.5542 18.025L21.0292 17.4709L20.475 16.9459L16.9167 20.475V21.5834ZM21.0292 17.4709L20.475 16.9459L21.5542 18.025L21.0292 17.4709Z" fill="#212121"/>
</g>
</g>
</svg>
