<svg width="16" height="16" viewBox="0 0 16 16" fill="none" xmlns="http://www.w3.org/2000/svg">
<g id="note_stack_add">
<mask id="mask0_9_14" style="mask-type:alpha" maskUnits="userSpaceOnUse" x="0" y="0" width="16" height="16">
<rect id="Bounding box" width="16" height="16" fill="#D9D9D9"/>
</mask>
<g mask="url(#mask0_9_14)">
<path id="note_stack_add_2" d="M4.66659 13.3333V5.98332C4.66659 5.61666 4.79993 5.30554 5.06659 5.04999C5.33326 4.79443 5.64993 4.66666 6.01659 4.66666H13.3333C13.6999 4.66666 14.0138 4.79721 14.2749 5.05832C14.536 5.31943 14.6666 5.63332 14.6666 5.99999V11.3333L11.3333 14.6667H5.99993C5.63326 14.6667 5.31937 14.5361 5.05826 14.275C4.79715 14.0139 4.66659 13.7 4.66659 13.3333ZM1.34993 4.16666C1.28326 3.79999 1.35548 3.46943 1.56659 3.17499C1.77771 2.88054 2.06659 2.69999 2.43326 2.63332L9.66659 1.34999C10.0333 1.28332 10.3638 1.35554 10.6583 1.56666C10.9527 1.77777 11.1333 2.06666 11.1999 2.43332L11.3666 3.33332H9.99993L9.88326 2.66666L2.66659 3.94999L3.33326 7.71666V12.3667C3.15548 12.2667 3.00271 12.1333 2.87493 11.9667C2.74715 11.8 2.66659 11.6111 2.63326 11.4L1.34993 4.16666ZM5.99993 5.99999V13.3333H10.6666L13.3333 10.6667V5.99999H5.99993ZM8.99993 12.3333H10.3333V10.3333H12.3333V8.99999H10.3333V6.99999H8.99993V8.99999H6.99993V10.3333H8.99993V12.3333Z" fill="white"/>
</g>
</g>
</svg>
